name rise38.3101peak57.3503fall81.6963.mot
datacolumns 19
datarows 28
range 12.491623 12.536623
endheader
time	ground_force1_vx	ground_force1_vy	ground_force1_vz	ground_force1_px	ground_force1_py	ground_force1_pz	ground_force2_vx	ground_force2_vy	ground_force2_vz	ground_force2_px	ground_force2_py	ground_force2_pz	ground_torque1_x	ground_torque1_y	ground_torque1_z	ground_torque2_x	ground_torque2_y	ground_torque2_z	
12.491623	1.182136	677.474261	42.063950	0.255983	0.000000	0.100955	0.000000	0.000000	0.000000	0.000000	0.000000	0.000000	0.000000	20.730937	0.000000	0.000000	0.000000	0.000000	
12.493291	0.919250	678.666636	42.079443	0.255645	0.000000	0.100917	0.000000	0.000000	0.000000	0.000000	0.000000	0.000000	0.000000	20.798536	0.000000	0.000000	0.000000	0.000000	
12.494955	0.647292	679.895709	42.100391	0.255318	0.000000	0.100878	0.000000	0.000000	0.000000	0.000000	0.000000	0.000000	0.000000	20.872393	0.000000	0.000000	0.000000	0.000000	
12.496620	0.365588	681.159086	42.126353	0.254998	0.000000	0.100840	0.000000	0.000000	0.000000	0.000000	0.000000	0.000000	0.000000	20.952201	0.000000	0.000000	0.000000	0.000000	
12.498293	0.073494	682.454462	42.156891	0.254682	0.000000	0.100802	0.000000	0.000000	0.000000	0.000000	0.000000	0.000000	0.000000	21.037654	0.000000	0.000000	0.000000	0.000000	
12.499961	-0.229600	683.779629	42.191571	0.254366	0.000000	0.100765	0.000000	0.000000	0.000000	0.000000	0.000000	0.000000	0.000000	21.128440	0.000000	0.000000	0.000000	0.000000	
12.501628	-0.544269	685.132475	42.229969	0.254048	0.000000	0.100729	0.000000	0.000000	0.000000	0.000000	0.000000	0.000000	0.000000	21.224248	0.000000	0.000000	0.000000	0.000000	
12.503295	-0.871046	686.510996	42.271667	0.253724	0.000000	0.100694	0.000000	0.000000	0.000000	0.000000	0.000000	0.000000	0.000000	21.324764	0.000000	0.000000	0.000000	0.000000	
12.504961	-1.210426	687.913287	42.316257	0.253392	0.000000	0.100659	0.000000	0.000000	0.000000	0.000000	0.000000	0.000000	0.000000	21.429678	0.000000	0.000000	0.000000	0.000000	
12.506632	-1.562856	689.337553	42.363344	0.253049	0.000000	0.100626	0.000000	0.000000	0.000000	0.000000	0.000000	0.000000	0.000000	21.538679	0.000000	0.000000	0.000000	0.000000	
12.508294	-1.928737	690.782107	42.412546	0.252690	0.000000	0.100593	0.000000	0.000000	0.000000	0.000000	0.000000	0.000000	0.000000	21.651458	0.000000	0.000000	0.000000	0.000000	
12.509956	-2.308420	692.245370	42.463492	0.252315	0.000000	0.100562	0.000000	0.000000	0.000000	0.000000	0.000000	0.000000	0.000000	21.767711	0.000000	0.000000	0.000000	0.000000	
12.511620	-2.702203	693.725873	42.515831	0.251920	0.000000	0.100533	0.000000	0.000000	0.000000	0.000000	0.000000	0.000000	0.000000	21.887137	0.000000	0.000000	0.000000	0.000000	
12.513294	-3.110334	695.222252	42.569226	0.251504	0.000000	0.100505	0.000000	0.000000	0.000000	0.000000	0.000000	0.000000	0.000000	22.009441	0.000000	0.000000	0.000000	0.000000	
12.514959	-3.533000	696.733253	42.623359	0.251063	0.000000	0.100478	0.000000	0.000000	0.000000	0.000000	0.000000	0.000000	0.000000	22.134333	0.000000	0.000000	0.000000	0.000000	
12.516621	-3.970336	698.257728	42.677929	0.250596	0.000000	0.100453	0.000000	0.000000	0.000000	0.000000	0.000000	0.000000	0.000000	22.261529	0.000000	0.000000	0.000000	0.000000	
12.518293	-4.422417	699.794630	42.732659	0.250100	0.000000	0.100429	0.000000	0.000000	0.000000	0.000000	0.000000	0.000000	0.000000	22.390754	0.000000	0.000000	0.000000	0.000000	
12.519954	-4.889258	701.343016	42.787291	0.249575	0.000000	0.100408	0.000000	0.000000	0.000000	0.000000	0.000000	0.000000	0.000000	22.521740	0.000000	0.000000	0.000000	0.000000	
12.521620	-5.370815	702.902038	42.841590	0.249019	0.000000	0.100388	0.000000	0.000000	0.000000	0.000000	0.000000	0.000000	0.000000	22.654228	0.000000	0.000000	0.000000	0.000000	
12.523289	-5.866985	704.470946	42.895344	0.248431	0.000000	0.100370	0.000000	0.000000	0.000000	0.000000	0.000000	0.000000	0.000000	22.787968	0.000000	0.000000	0.000000	0.000000	
12.524956	-6.377603	706.049078	42.948366	0.247809	0.000000	0.100354	0.000000	0.000000	0.000000	0.000000	0.000000	0.000000	0.000000	22.922723	0.000000	0.000000	0.000000	0.000000	
12.526624	-6.902444	707.635860	43.000492	0.247153	0.000000	0.100339	0.000000	0.000000	0.000000	0.000000	0.000000	0.000000	0.000000	23.058262	0.000000	0.000000	0.000000	0.000000	
12.528287	-7.441224	709.230802	43.051586	0.246463	0.000000	0.100327	0.000000	0.000000	0.000000	0.000000	0.000000	0.000000	0.000000	23.194368	0.000000	0.000000	0.000000	0.000000	
12.529954	-7.993600	710.833488	43.101537	0.245737	0.000000	0.100316	0.000000	0.000000	0.000000	0.000000	0.000000	0.000000	0.000000	23.330836	0.000000	0.000000	0.000000	0.000000	
12.531622	-8.559171	712.443579	43.150261	0.244977	0.000000	0.100308	0.000000	0.000000	0.000000	0.000000	0.000000	0.000000	0.000000	23.467469	0.000000	0.000000	0.000000	0.000000	
12.533288	-9.137479	714.060800	43.197701	0.244181	0.000000	0.100301	0.000000	0.000000	0.000000	0.000000	0.000000	0.000000	0.000000	23.604087	0.000000	0.000000	0.000000	0.000000	
12.534957	-9.728009	715.684941	43.243828	0.243352	0.000000	0.100296	0.000000	0.000000	0.000000	0.000000	0.000000	0.000000	0.000000	23.740518	0.000000	0.000000	0.000000	0.000000	
12.536623	-10.330195	717.315845	43.288642	0.242488	0.000000	0.100293	0.000000	0.000000	0.000000	0.000000	0.000000	0.000000	0.000000	23.876604	0.000000	0.000000	0.000000	0.000000	
